<svg width="394" height="394" viewBox="0 0 394 394" fill="none" xmlns="http://www.w3.org/2000/svg">
<path d="M90 84H142.354V199.735H169V221H90V199.735H115.989V105.359H90V84Z" fill="white"/>
<path d="M313 258V310.354L82.2349 310.354V258H103.5V283.989L291.641 283.989V258H313Z" fill="white"/>
<path d="M319 162.585C319 168.491 318.464 174.115 317.391 179.456C316.318 184.734 314.772 189.635 312.753 194.159C310.607 198.683 307.957 202.83 304.801 206.6C301.646 210.37 298.049 213.512 294.01 216.025C290.35 218.225 286.311 219.921 281.894 221.115C277.54 222.372 272.838 223 267.79 223C262.426 223 257.472 222.309 252.929 220.926C248.385 219.544 244.252 217.596 240.529 215.083C236.869 212.444 233.587 209.271 230.684 205.563C227.781 201.793 225.352 197.552 223.395 192.84C221.629 188.504 220.272 183.791 219.325 178.702C218.442 173.612 218 168.24 218 162.585V142.604C218 136.572 218.505 130.854 219.515 125.45C220.587 120.046 222.133 115.051 224.153 110.464C226.109 106.128 228.475 102.201 231.252 98.6825C234.092 95.1638 237.342 92.1477 241.002 89.6344C244.599 87.1838 248.638 85.2988 253.118 83.9793C257.599 82.6598 262.458 82 267.695 82C272.996 82 277.95 82.6912 282.557 84.0735C287.226 85.393 291.423 87.3095 295.146 89.8229C298.869 92.2106 302.119 95.1009 304.896 98.494C307.736 101.887 310.165 105.626 312.185 109.71C314.393 114.36 316.066 119.449 317.202 124.979C318.401 130.508 319 136.383 319 142.604V162.585ZM292.023 142.415C292.023 138.896 291.833 135.566 291.455 132.424C291.139 129.22 290.603 126.267 289.845 123.565C288.899 120.172 287.637 117.156 286.059 114.517C284.481 111.815 282.62 109.616 280.474 107.919C278.77 106.662 276.846 105.689 274.7 104.997C272.618 104.306 270.283 103.961 267.695 103.961C265.234 103.961 262.994 104.275 260.975 104.903C259.018 105.531 257.251 106.443 255.674 107.636C253.528 109.396 251.698 111.595 250.184 114.234C248.732 116.873 247.596 119.952 246.776 123.471C246.145 126.172 245.672 129.126 245.356 132.33C245.104 135.535 244.977 138.896 244.977 142.415V162.585C244.977 165.915 245.104 169.12 245.356 172.199C245.609 175.277 246.05 178.136 246.681 180.775C247.376 184.106 248.385 187.153 249.71 189.918C251.099 192.62 252.708 194.819 254.538 196.515C256.242 198.023 258.167 199.186 260.312 200.003C262.521 200.82 265.013 201.228 267.79 201.228C270.44 201.228 272.87 200.851 275.079 200.097C277.287 199.343 279.244 198.243 280.948 196.798C283.093 195.039 284.892 192.84 286.343 190.201C287.858 187.499 289.057 184.451 289.94 181.058C290.634 178.419 291.139 175.529 291.455 172.387C291.833 169.245 292.023 165.978 292.023 162.585V142.415Z" fill="white"/>
<path fill-rule="evenodd" clip-rule="evenodd" d="M304 20H90C51.3401 20 20 51.3401 20 90V304C20 342.66 51.3401 374 90 374H304C342.66 374 374 342.66 374 304V90C374 51.3401 342.66 20 304 20ZM90 0C40.2944 0 0 40.2944 0 90V304C0 353.706 40.2944 394 90 394H304C353.706 394 394 353.706 394 304V90C394 40.2944 353.706 0 304 0H90Z" fill="white"/>
</svg>
