<svg width="900" height="900" viewBox="0 0 900 900" fill="none" xmlns="http://www.w3.org/2000/svg">
<path fill-rule="evenodd" clip-rule="evenodd" d="M97.1338 81.0979C97.1337 39.7013 130.692 6.14267 172.089 6.14258C213.485 6.14248 247.044 39.701 247.044 81.0976L247.044 181.442C308.117 156.711 377.177 142.86 450.113 142.86C523.409 142.86 592.79 156.848 654.086 181.809L654.086 85.8944C654.086 44.4979 687.644 10.9392 729.041 10.9392C770.437 10.9392 803.996 44.4978 803.996 85.8944L803.996 280.806C861.67 340.122 896.983 415.307 896.983 497.902C896.983 699.807 690.333 852.943 450.113 852.943C209.894 852.943 3.24414 699.807 3.24414 497.902C3.24414 414.874 38.9258 339.339 97.1342 279.88L97.1338 81.0979ZM172.089 60.1103C160.498 60.1103 151.101 69.5067 151.101 81.0978L151.102 302.617L142.818 310.58C88.498 362.793 57.2119 428.03 57.2119 497.902C57.2119 658.359 226.54 798.975 450.113 798.975C673.686 798.975 843.015 658.359 843.015 497.902C843.015 428.386 812.049 363.464 758.245 311.387L750.028 303.433L750.028 85.8944C750.028 74.3033 740.632 64.9069 729.041 64.907C717.45 64.907 708.053 74.3033 708.053 85.8944L708.054 268.156L668.705 247.87C606.406 215.752 531.288 196.828 450.113 196.828C369.308 196.828 294.503 215.581 232.371 247.434L193.077 267.579L193.076 81.0977C193.076 69.5066 183.68 60.1103 172.089 60.1103Z" fill="#D9D9D9"/>
<path fill-rule="evenodd" clip-rule="evenodd" d="M186.269 571.687C196.822 561.164 213.907 561.188 224.43 571.741C288.557 636.052 367.148 672.945 451.175 672.945C535.202 672.945 613.793 636.052 677.92 571.741C688.443 561.188 705.528 561.164 716.081 571.687C726.634 582.209 726.658 599.295 716.135 609.848C643.68 682.51 551.901 726.913 451.175 726.913C350.448 726.913 258.669 682.51 186.214 609.848C175.691 599.295 175.716 582.209 186.269 571.687Z" fill="#D9D9D9"/>
<path fill-rule="evenodd" clip-rule="evenodd" d="M247.727 364.637C241.795 350.966 248.069 335.075 261.741 329.143L334.897 297.402C343.238 293.783 352.84 294.608 360.441 299.596C368.043 304.584 372.621 313.065 372.621 322.157L372.621 546.422C372.621 561.325 360.54 573.406 345.637 573.406C330.734 573.406 318.653 561.325 318.653 546.422L318.653 363.278L283.221 378.652C269.55 384.583 253.658 378.309 247.727 364.637Z" fill="#D9D9D9"/>
<path fill-rule="evenodd" clip-rule="evenodd" d="M438.582 394.71C438.582 340.398 482.611 296.369 536.923 296.369C591.236 296.369 635.264 340.398 635.264 394.71V478.66C635.264 532.972 591.236 577.001 536.923 577.001C482.611 577.001 438.582 532.972 438.582 478.66V394.71ZM536.923 350.337C512.416 350.337 492.55 370.204 492.55 394.71V478.66C492.55 503.167 512.416 523.034 536.923 523.034C561.43 523.034 581.297 503.167 581.297 478.66V394.71C581.297 370.204 561.43 350.337 536.923 350.337Z" fill="#D9D9D9"/>
</svg>
